<svg width="180" height="29" viewBox="0 0 180 29" fill="none" xmlns="http://www.w3.org/2000/svg">
<g clip-path="url(#clip0_29_213)">
<path d="M14.7572 4.45854L29.1885 0.28125L24.9777 14.5001L29.1885 28.6788L14.7572 24.5416L0.285034 28.6788L4.53675 14.5001L0.285034 0.28125L14.7572 4.45854Z" fill="white"/>
</g>
<path d="M40.1099 24.9721V2.4165H49.2272C50.6266 2.4165 51.8728 2.69576 52.966 3.25428C54.0811 3.79132 54.9447 4.56465 55.5569 5.57428C56.191 6.56243 56.508 7.75465 56.508 9.15095V9.56984C56.508 10.9661 56.1801 12.1691 55.5241 13.1787C54.8901 14.1884 54.0264 14.9617 52.9332 15.4987C51.84 16.0358 50.6047 16.3043 49.2272 16.3043H43.6519V24.9721H40.1099ZM43.6519 13.1465H48.8665C50.1127 13.1465 51.1076 12.8243 51.8509 12.1798C52.5943 11.5354 52.966 10.6547 52.966 9.53762V9.21539C52.966 8.07687 52.5943 7.18539 51.8509 6.54095C51.1076 5.8965 50.1127 5.57428 48.8665 5.57428H43.6519V13.1465Z" fill="white"/>
<path d="M67.0969 25.4232C65.4789 25.4232 64.0359 25.101 62.7678 24.4565C61.5215 23.7906 60.5376 22.8454 59.8161 21.621C59.0946 20.3965 58.7338 18.9465 58.7338 17.271V16.7876C58.7338 15.1121 59.0946 13.6728 59.8161 12.4698C60.5376 11.2454 61.5215 10.3002 62.7678 9.63428C64.0359 8.96836 65.4789 8.63539 67.0969 8.63539C68.7148 8.63539 70.1579 8.96836 71.426 9.63428C72.6941 10.3002 73.6889 11.2454 74.4105 12.4698C75.132 13.6728 75.4927 15.1121 75.4927 16.7876V17.271C75.4927 18.9465 75.132 20.3965 74.4105 21.621C73.6889 22.8454 72.6941 23.7906 71.426 24.4565C70.1579 25.101 68.7148 25.4232 67.0969 25.4232ZM67.0969 22.4587C68.5836 22.4587 69.7862 21.9969 70.7045 21.0732C71.6446 20.128 72.1147 18.8284 72.1147 17.1743V16.8843C72.1147 15.2302 71.6556 13.9413 70.7373 13.0176C69.819 12.0724 68.6055 11.5998 67.0969 11.5998C65.632 11.5998 64.4294 12.0724 63.4893 13.0176C62.571 13.9413 62.1118 15.2302 62.1118 16.8843V17.1743C62.1118 18.8284 62.571 20.128 63.4893 21.0732C64.4294 21.9969 65.632 22.4587 67.0969 22.4587Z" fill="white"/>
<path d="M86.3232 25.4232C84.268 25.4232 82.5626 24.9721 81.207 24.0698C79.8514 23.1676 79.0206 21.8035 78.7145 19.9776L81.8629 19.2365C82.0378 20.1172 82.333 20.8154 82.7484 21.331C83.1638 21.8465 83.6776 22.2117 84.2898 22.4265C84.9239 22.6413 85.6017 22.7487 86.3232 22.7487C87.3946 22.7487 88.2145 22.5447 88.7829 22.1365C89.3733 21.7284 89.6684 21.2021 89.6684 20.5576C89.6684 19.9132 89.3951 19.4406 88.8485 19.1398C88.3019 18.8391 87.493 18.5921 86.4216 18.3987L85.3065 18.2054C84.2133 18.0121 83.2185 17.7328 82.3221 17.3676C81.4256 17.0024 80.715 16.4976 80.1903 15.8532C79.6656 15.2087 79.4032 14.3817 79.4032 13.3721C79.4032 11.8684 79.9717 10.7084 81.1086 9.89206C82.2455 9.05428 83.7542 8.63539 85.6345 8.63539C87.4492 8.63539 88.936 9.04354 90.0948 9.85984C91.2755 10.6547 92.0407 11.7395 92.3905 13.1143L89.2421 13.9843C89.0453 13.0176 88.6299 12.341 87.9958 11.9543C87.3618 11.5461 86.5747 11.3421 85.6345 11.3421C84.7162 11.3421 83.9947 11.5139 83.4699 11.8576C82.9452 12.1798 82.6828 12.6417 82.6828 13.2432C82.6828 13.8876 82.9343 14.3602 83.4371 14.6609C83.9619 14.9617 84.6615 15.1872 85.5361 15.3376L86.684 15.5309C87.8428 15.7243 88.9032 15.9928 89.8652 16.3365C90.8272 16.6802 91.5816 17.1743 92.1282 17.8187C92.6966 18.4632 92.9809 19.3224 92.9809 20.3965C92.9809 21.9861 92.3796 23.2213 91.1771 24.1021C89.9745 24.9828 88.3566 25.4232 86.3232 25.4232Z" fill="white"/>
<path d="M96.9292 24.9721V9.0865H100.307V24.9721H96.9292ZM98.6347 6.92762C97.9787 6.92762 97.4212 6.72354 96.962 6.31539C96.5248 5.88576 96.3061 5.33799 96.3061 4.67206C96.3061 4.00613 96.5248 3.4691 96.962 3.06095C97.4212 2.63132 97.9787 2.4165 98.6347 2.4165C99.3124 2.4165 99.87 2.63132 100.307 3.06095C100.745 3.4691 100.963 4.00613 100.963 4.67206C100.963 5.33799 100.745 5.88576 100.307 6.31539C99.87 6.72354 99.3124 6.92762 98.6347 6.92762Z" fill="white"/>
<path d="M111.388 24.9721C110.404 24.9721 109.617 24.6821 109.026 24.1021C108.458 23.5221 108.174 22.7487 108.174 21.7821V11.8898H103.713V9.0865H108.174V3.83428H111.552V9.0865H116.373V11.8898H111.552V21.2021C111.552 21.8465 111.858 22.1687 112.47 22.1687H115.848V24.9721H111.388Z" fill="white"/>
<path d="M120.341 24.9721V9.0865H123.719V24.9721H120.341ZM122.047 6.92762C121.391 6.92762 120.833 6.72354 120.374 6.31539C119.937 5.88576 119.718 5.33799 119.718 4.67206C119.718 4.00613 119.937 3.4691 120.374 3.06095C120.833 2.63132 121.391 2.4165 122.047 2.4165C122.725 2.4165 123.282 2.63132 123.719 3.06095C124.157 3.4691 124.375 4.00613 124.375 4.67206C124.375 5.33799 124.157 5.88576 123.719 6.31539C123.282 6.72354 122.725 6.92762 122.047 6.92762Z" fill="white"/>
<path d="M132.471 24.9721L127.027 9.0865H130.602L134.898 22.5232H135.423L139.719 9.0865H143.294L137.85 24.9721H132.471Z" fill="white"/>
<path d="M152.771 25.2621C151.546 25.2621 150.453 24.9935 149.491 24.4565C148.529 23.9195 147.775 23.1569 147.228 22.1687C146.681 21.1806 146.408 19.9991 146.408 18.6243V9.0865H149.786V18.3987C149.786 19.7735 150.136 20.7939 150.836 21.4598C151.535 22.1043 152.508 22.4265 153.755 22.4265C155.132 22.4265 156.236 21.9754 157.067 21.0732C157.92 20.1495 158.346 18.8284 158.346 17.1098V9.0865H161.724V24.9721H158.412V22.5876H157.887C157.581 23.2321 157.034 23.8443 156.247 24.4243C155.46 24.9828 154.301 25.2621 152.771 25.2621Z" fill="white"/>
<path d="M173.342 25.4232C171.287 25.4232 169.582 24.9721 168.226 24.0698C166.871 23.1676 166.04 21.8035 165.734 19.9776L168.882 19.2365C169.057 20.1172 169.352 20.8154 169.768 21.331C170.183 21.8465 170.697 22.2117 171.309 22.4265C171.943 22.6413 172.621 22.7487 173.342 22.7487C174.414 22.7487 175.234 22.5447 175.802 22.1365C176.392 21.7284 176.688 21.2021 176.688 20.5576C176.688 19.9132 176.414 19.4406 175.868 19.1398C175.321 18.8391 174.512 18.5921 173.441 18.3987L172.326 18.2054C171.232 18.0121 170.238 17.7328 169.341 17.3676C168.445 17.0024 167.734 16.4976 167.209 15.8532C166.685 15.2087 166.422 14.3817 166.422 13.3721C166.422 11.8684 166.991 10.7084 168.128 9.89206C169.265 9.05428 170.773 8.63539 172.654 8.63539C174.468 8.63539 175.955 9.04354 177.114 9.85984C178.295 10.6547 179.06 11.7395 179.41 13.1143L176.261 13.9843C176.064 13.0176 175.649 12.341 175.015 11.9543C174.381 11.5461 173.594 11.3421 172.654 11.3421C171.735 11.3421 171.014 11.5139 170.489 11.8576C169.964 12.1798 169.702 12.6417 169.702 13.2432C169.702 13.8876 169.953 14.3602 170.456 14.6609C170.981 14.9617 171.681 15.1872 172.555 15.3376L173.703 15.5309C174.862 15.7243 175.922 15.9928 176.884 16.3365C177.846 16.6802 178.601 17.1743 179.147 17.8187C179.716 18.4632 180 19.3224 180 20.3965C180 21.9861 179.399 23.2213 178.196 24.1021C176.994 24.9828 175.376 25.4232 173.342 25.4232Z" fill="white"/>
<defs>
<clipPath id="clip0_29_213">
<rect width="29.5167" height="29" fill="white"/>
</clipPath>
</defs>
</svg>
